<svg width="56" height="56" viewBox="0 0 56 56" fill="none" xmlns="http://www.w3.org/2000/svg">
<path fill-rule="evenodd" clip-rule="evenodd" d="M28 6.99999C16.402 6.99999 7.00001 16.402 7.00001 28C7.00001 39.598 16.402 49 28 49C39.598 49 49 39.598 49 28C49 16.402 39.598 6.99999 28 6.99999ZM2.33334 28C2.33334 13.8247 13.8247 2.33333 28 2.33333C42.1753 2.33333 53.6667 13.8247 53.6667 28C53.6667 42.1753 42.1753 53.6667 28 53.6667C13.8247 53.6667 2.33334 42.1753 2.33334 28Z" fill="#EDEDED"/>
<path fill-rule="evenodd" clip-rule="evenodd" d="M2.33301 22.9998C2.33301 21.7112 3.37768 20.6665 4.66634 20.6665H51.333C52.6217 20.6665 53.6663 21.7112 53.6663 22.9998C53.6663 24.2885 52.6217 25.3332 51.333 25.3332H4.66634C3.37768 25.3332 2.33301 24.2885 2.33301 22.9998Z" fill="#FF7C4E"/>
<path fill-rule="evenodd" clip-rule="evenodd" d="M2.33301 32.9998C2.33301 31.7112 3.37768 30.6665 4.66634 30.6665H51.333C52.6217 30.6665 53.6663 31.7112 53.6663 32.9998C53.6663 34.2885 52.6217 35.3332 51.333 35.3332H4.66634C3.37768 35.3332 2.33301 34.2885 2.33301 32.9998Z" fill="#FF7C4E"/>
<path fill-rule="evenodd" clip-rule="evenodd" d="M21.0006 28.0001C21.1605 35.1748 23.6279 42.0822 28 47.7149C32.3721 42.0822 34.8396 35.1748 34.9995 28.0001C34.8396 20.8255 32.3721 13.9181 28 8.28533C23.6279 13.9181 21.1605 20.8255 21.0006 28.0001ZM28 4.66681L26.2772 3.09315C20.0594 9.90026 16.5259 18.7341 16.3338 27.9515C16.3332 27.9839 16.3332 28.0163 16.3338 28.0487C16.5259 37.2661 20.0594 46.1 26.2772 52.9071C26.7193 53.3911 27.3445 53.6668 28 53.6668C28.6555 53.6668 29.2807 53.3911 29.7228 52.9071C35.9406 46.1 39.4741 37.2661 39.6662 28.0487C39.6668 28.0163 39.6668 27.9839 39.6662 27.9515C39.4741 18.7341 35.9406 9.90026 29.7228 3.09315L28 4.66681Z" fill="#EDEDED"/>
<circle cx="19" cy="23" r="4" fill="#FF7C4E" stroke="#EDEDED" stroke-width="2"/>
<circle cx="19" cy="34" r="4" fill="#FF7C4E" stroke="#EDEDED" stroke-width="2"/>
<circle cx="5" cy="23" r="4" fill="#FF7C4E" stroke="#EDEDED" stroke-width="2"/>
<circle cx="5" cy="34" r="4" fill="#FF7C4E" stroke="#EDEDED" stroke-width="2"/>
<circle cx="37" cy="23" r="4" fill="#FF7C4E" stroke="#EDEDED" stroke-width="2"/>
<circle cx="37" cy="34" r="4" fill="#FF7C4E" stroke="#EDEDED" stroke-width="2"/>
<circle cx="51" cy="23" r="4" fill="#FF7C4E" stroke="#EDEDED" stroke-width="2"/>
<circle cx="51" cy="34" r="4" fill="#FF7C4E" stroke="#EDEDED" stroke-width="2"/>
</svg>
