<svg width="56" height="56" viewBox="0 0 56 56" fill="none" xmlns="http://www.w3.org/2000/svg">
<path fill-rule="evenodd" clip-rule="evenodd" d="M18.6667 28C18.6667 22.8453 22.8453 18.6667 28 18.6667C33.1547 18.6667 37.3333 22.8453 37.3333 28C37.3333 33.1547 33.1547 37.3333 28 37.3333C22.8453 37.3333 18.6667 33.1547 18.6667 28Z" fill="#FF7C4E"/>
<path fill-rule="evenodd" clip-rule="evenodd" d="M28 4.66667C27.3812 4.66667 26.7877 4.9125 26.3501 5.35008C25.9125 5.78767 25.6667 6.38116 25.6667 7V7.40597C25.6619 8.61186 25.3045 9.79002 24.6387 10.7954C23.9729 11.8008 23.0276 12.5896 21.9192 13.0647C21.7219 13.1492 21.5143 13.206 21.3024 13.2337C20.2953 13.5863 19.2111 13.6733 18.1557 13.4819C16.94 13.2615 15.8182 12.6819 14.935 11.818L14.9166 11.8L14.7768 11.6599C14.56 11.443 14.3018 11.2699 14.0185 11.1525C13.7353 11.0351 13.4316 10.9747 13.125 10.9747C12.8184 10.9747 12.5147 11.0351 12.2315 11.1525C11.9482 11.2699 11.6909 11.4421 11.4742 11.659L11.4723 11.6608C11.2554 11.8775 11.0833 12.1349 10.9659 12.4181C10.8484 12.7014 10.788 13.005 10.788 13.3117C10.788 13.6183 10.8484 13.9219 10.9659 14.2052C11.0833 14.4885 11.2554 14.7458 11.4723 14.9625L11.6314 15.1216C12.4954 16.0048 13.0748 17.1267 13.2952 18.3423C13.5113 19.5338 13.3726 20.7619 12.8974 21.8745C12.4644 23.0098 11.7063 23.9929 10.7171 24.7004C9.70794 25.4222 8.50496 25.8237 7.26456 25.8527L7.21 25.8533H7C6.38116 25.8533 5.78767 26.0992 5.35008 26.5368C4.9125 26.9743 4.66667 27.5678 4.66667 28.1867C4.66667 28.8055 4.9125 29.399 5.35008 29.8366C5.78767 30.2742 6.38116 30.52 7 30.52H7.40597C8.61186 30.5248 9.79002 30.8821 10.7954 31.548C11.7973 32.2115 12.5841 33.1525 13.0597 34.2559C13.5545 35.3833 13.7016 36.6328 13.4819 37.8443C13.2615 39.06 12.6819 40.1817 11.818 41.0649L11.8 41.0834L11.6599 41.2233C11.443 41.4399 11.2699 41.6982 11.1525 41.9815C11.0351 42.2647 10.9747 42.5684 10.9747 42.875C10.9747 43.1816 11.0351 43.4853 11.1525 43.7685C11.2699 44.0518 11.4421 44.3091 11.659 44.5258L11.6608 44.5277C11.8775 44.7446 12.1349 44.9167 12.4181 45.0341C12.7014 45.1516 13.005 45.212 13.3117 45.212C13.6183 45.212 13.9219 45.1516 14.2052 45.0341C14.4885 44.9167 14.7458 44.7446 14.9625 44.5277L15.1216 44.3685C16.0048 43.5046 17.1267 42.9252 18.3423 42.7048C19.5338 42.4887 20.7619 42.6274 21.8745 43.1026C23.0098 43.5356 23.9929 44.2937 24.7004 45.2829C25.4222 46.2921 25.8237 47.495 25.8527 48.7354L25.8533 48.79V49C25.8533 49.6188 26.0992 50.2123 26.5368 50.6499C26.9743 51.0875 27.5678 51.3333 28.1867 51.3333C28.8055 51.3333 29.399 51.0875 29.8366 50.6499C30.2742 50.2123 30.52 49.6188 30.52 49V48.6033L30.52 48.594C30.5248 47.3881 30.8821 46.21 31.548 45.2046C32.2116 44.2026 33.1527 43.4157 34.2562 42.9402C35.3835 42.4454 36.6329 42.2984 37.8443 42.5181C39.06 42.7385 40.1817 43.3181 41.0649 44.182L41.0833 44.2L41.2232 44.3401C41.4399 44.557 41.6982 44.73 41.9815 44.8475C42.2647 44.9649 42.5684 45.0253 42.875 45.0253C43.1816 45.0253 43.4853 44.9649 43.7685 44.8475C44.0518 44.73 44.3091 44.5579 44.5258 44.341L44.5277 44.3392C44.7446 44.1225 44.9167 43.8651 45.0341 43.5819C45.1516 43.2986 45.212 42.995 45.212 42.6883C45.212 42.3817 45.1516 42.0781 45.0341 41.7948C44.9167 41.5115 44.7446 41.2542 44.5277 41.0375L44.3685 40.8784C43.5046 39.9952 42.9252 38.8733 42.7048 37.6577C42.4851 36.4462 42.6321 35.1968 43.1269 34.0696C43.6024 32.966 44.3892 32.0249 45.3912 31.3613C46.3966 30.6955 47.5748 30.3382 48.7807 30.3333L48.79 30.3333L49 30.3333C49.6188 30.3333 50.2123 30.0875 50.6499 29.6499C51.0875 29.2123 51.3333 28.6188 51.3333 28C51.3333 27.3812 51.0875 26.7877 50.6499 26.3501C50.2123 25.9125 49.6188 25.6667 49 25.6667H48.6033L48.594 25.6666C47.3881 25.6618 46.21 25.3045 45.2046 24.6387C44.1992 23.9729 43.4104 23.0276 42.9353 21.9192C42.8508 21.7219 42.794 21.5143 42.7663 21.3024C42.4137 20.2953 42.3267 19.2111 42.5181 18.1557C42.7385 16.94 43.3181 15.8183 44.182 14.935L44.2 14.9167L44.3401 14.7768C44.557 14.5601 44.7301 14.3018 44.8475 14.0185C44.9649 13.7353 45.0253 13.4316 45.0253 13.125C45.0253 12.8184 44.9649 12.5147 44.8475 12.2315C44.7301 11.9482 44.5579 11.6909 44.341 11.4742L44.3392 11.4723C44.1225 11.2554 43.8651 11.0833 43.5819 10.9659C43.2986 10.8484 42.995 10.788 42.6883 10.788C42.3817 10.788 42.0781 10.8484 41.7948 10.9659C41.5115 11.0833 41.2542 11.2554 41.0375 11.4723L40.8784 11.6314C39.9952 12.4954 38.8733 13.0748 37.6577 13.2952C36.4461 13.5149 35.1966 13.3679 34.0693 12.873C32.9659 12.3975 32.0248 11.6107 31.3613 10.6088C30.6955 9.60336 30.3382 8.42519 30.3333 7.21931L30.3333 7.21V7C30.3333 6.38116 30.0875 5.78767 29.6499 5.35008C29.2123 4.9125 28.6188 4.66667 28 4.66667ZM45.2667 35L47.4013 35.9421C47.279 36.2194 47.2425 36.5269 47.2966 36.8251C47.35 37.12 47.4897 37.3923 47.6977 37.6079L47.8257 37.7358C47.826 37.7361 47.8254 37.7355 47.8257 37.7358C48.4761 38.3858 48.993 39.1584 49.3451 40.0078C49.6973 40.8575 49.8787 41.7684 49.8787 42.6883C49.8787 43.6082 49.6973 44.5191 49.3451 45.3689C48.9928 46.2187 48.4765 46.9907 47.8257 47.6408L46.1767 45.99L47.8275 47.639C47.1774 48.2898 46.4054 48.8061 45.5556 49.1584C44.7058 49.5107 43.7949 49.692 42.875 49.692C41.9551 49.692 41.0442 49.5107 40.1944 49.1584C39.345 48.8063 38.5733 48.2903 37.9234 47.6399C37.9231 47.6396 37.9237 47.6402 37.9234 47.6399L37.7945 47.511C37.579 47.303 37.3067 47.1634 37.0117 47.1099C36.7136 47.0558 36.406 47.0923 36.1288 47.2147L36.1059 47.2248C35.834 47.3413 35.6021 47.5346 35.4388 47.7813C35.2761 48.0269 35.1885 48.3146 35.1867 48.6092V49C35.1867 50.8565 34.4492 52.637 33.1364 53.9497C31.8237 55.2625 30.0432 56 28.1867 56C26.3301 56 24.5497 55.2625 23.2369 53.9497C21.9242 52.637 21.1867 50.8565 21.1867 49V48.8235C21.1756 48.5267 21.0776 48.2395 20.9047 47.9977C20.7276 47.7502 20.4802 47.5616 20.1946 47.4566C20.1484 47.4396 20.1029 47.4212 20.0579 47.4013C19.7806 47.279 19.4731 47.2425 19.1749 47.2966C18.88 47.35 18.6076 47.4897 18.392 47.6978L18.2642 47.8257C18.2639 47.826 18.2645 47.8254 18.2642 47.8257C17.6142 48.4761 16.8416 48.993 15.9922 49.3451C15.1425 49.6973 14.2316 49.8787 13.3117 49.8787C12.3918 49.8787 11.4809 49.6973 10.6311 49.3451C9.7821 48.9931 9.01073 48.4775 8.361 47.8275C7.71016 47.1774 7.19385 46.4054 6.84158 45.5556C6.48931 44.7058 6.308 43.7949 6.308 42.875C6.308 41.9551 6.48931 41.0442 6.84158 40.1944C7.19385 39.3446 7.71016 38.5726 8.361 37.9225L8.48892 37.7946C8.697 37.579 8.83664 37.3067 8.89011 37.0117C8.94418 36.7136 8.90768 36.406 8.78532 36.1288L8.77522 36.1059C8.6587 35.834 8.46535 35.6021 8.21874 35.4388C7.97309 35.2761 7.6854 35.1885 7.39083 35.1867H7C5.14348 35.1867 3.36301 34.4492 2.05025 33.1364C0.737498 31.8237 0 30.0432 0 28.1867C0 26.3302 0.737498 24.5497 2.05025 23.2369C3.36301 21.9242 5.14348 21.1867 7 21.1867H7.17649C7.47328 21.1756 7.76047 21.0776 8.00229 20.9047C8.24982 20.7276 8.43837 20.4802 8.54342 20.1946C8.56038 20.1484 8.5788 20.1029 8.59865 20.0579C8.72101 19.7806 8.75751 19.4731 8.70345 19.1749C8.64997 18.88 8.51032 18.6076 8.30223 18.3921L8.17434 18.2642C7.5235 17.6141 7.00719 16.842 6.65492 15.9922C6.30265 15.1425 6.12133 14.2316 6.12133 13.3117C6.12133 12.3918 6.30265 11.4809 6.65492 10.6311C7.00702 9.7817 7.52301 9.01 8.17342 8.36008C8.82334 7.70968 9.59503 7.19369 10.4444 6.84158C11.2942 6.48931 12.2051 6.308 13.125 6.308C14.0449 6.308 14.9558 6.48931 15.8056 6.84158C16.6554 7.19385 17.4274 7.71017 18.0775 8.361L18.2054 8.48889C18.4209 8.69698 18.6933 8.83663 18.9882 8.89011C19.2864 8.94418 19.594 8.90768 19.8712 8.78532C20.0206 8.71937 20.1762 8.66948 20.3352 8.63619C20.4978 8.52576 20.6383 8.38421 20.7479 8.21874C20.9106 7.97309 20.9982 7.6854 21 7.39083V7C21 5.14348 21.7375 3.36301 23.0503 2.05025C24.363 0.737498 26.1435 0 28 0C29.8565 0 31.637 0.737498 32.9497 2.05025C34.2625 3.36301 35 5.14348 35 7V7.20416C35.0018 7.49874 35.0894 7.78643 35.2521 8.03207C35.4154 8.27868 35.6473 8.47215 35.9192 8.58867L35.9422 8.59853C36.2194 8.72089 36.5269 8.75751 36.8251 8.70345C37.12 8.64997 37.3924 8.51033 37.6079 8.30226L37.7358 8.17434C38.3859 7.5235 39.158 7.00719 40.0078 6.65492C40.8575 6.30265 41.7684 6.12133 42.6883 6.12133C43.6082 6.12133 44.5191 6.30265 45.3689 6.65492C46.2187 7.00719 46.9907 7.5235 47.6408 8.17434C48.2908 8.82406 48.8065 9.59543 49.1584 10.4444C49.5107 11.2942 49.692 12.2051 49.692 13.125C49.692 14.0449 49.5107 14.9558 49.1584 15.8056C48.8063 16.655 48.2903 17.4267 47.6399 18.0766C47.6396 18.0769 47.6402 18.0763 47.6399 18.0766L47.5111 18.2054C47.303 18.4209 47.1634 18.6933 47.1099 18.9882C47.0558 19.2864 47.0923 19.594 47.2147 19.8712C47.2806 20.0206 47.3305 20.1762 47.3638 20.3352C47.4742 20.4978 47.6158 20.6383 47.7813 20.7479C48.0269 20.9106 48.3146 20.9982 48.6092 21H49C50.8565 21 52.637 21.7375 53.9497 23.0503C55.2625 24.363 56 26.1435 56 28C56 29.8565 55.2625 31.637 53.9497 32.9497C52.637 34.2625 50.8565 35 49 35H48.7958C48.5013 35.0018 48.2136 35.0894 47.9679 35.2521C47.7213 35.4154 47.5278 35.6473 47.4113 35.9192L45.2667 35Z" fill="#EDEDED"/>
</svg>
